<?xml version="1.0" encoding="UTF-8"?>
<svg width="37px" height="56px" viewBox="0 0 37 56" version="1.1" xmlns="http://www.w3.org/2000/svg" xmlns:xlink="http://www.w3.org/1999/xlink">
    <!-- Generator: Sketch 3.8.3 (29802) - http://www.bohemiancoding.com/sketch -->
    <title>noun_662980_cc</title>
    <desc>Created with Sketch.</desc>
    <defs></defs>
    <g id="Page-1" stroke="none" stroke-width="1" fill="none" fill-rule="evenodd" opacity="0.100000001">
        <g id="Landing-Copy-3" transform="translate(-1288.000000, -397.000000)" fill="#000000">
            <g id="noun_662980_cc" transform="translate(1288.000000, 397.000000)">
                <g id="Group">
                    <path d="M18.5,21.5 C19.881,21.5 21,20.381 21,19 L21,14 C21,12.619 19.881,11.5 18.5,11.5 C17.119,11.5 16,12.619 16,14 L16,19 C16,20.381 17.119,21.5 18.5,21.5 L18.5,21.5 Z" id="Shape"></path>
                    <path d="M18.5,55.5 C28.701,55.5 37,47.201 37,37 L37,19 C37,8.799 28.701,0.5 18.5,0.5 C8.299,0.5 0,8.799 0,19 L0,37 C0,47.201 8.299,55.5 18.5,55.5 L18.5,55.5 Z M5,19 C5,11.556 11.056,5.5 18.5,5.5 C25.944,5.5 32,11.556 32,19 L32,37 C32,44.444 25.944,50.5 18.5,50.5 C11.056,50.5 5,44.444 5,37 L5,19 L5,19 Z" id="Shape"></path>
                </g>
            </g>
        </g>
    </g>
</svg>